<?xml version="1.0" standalone="no"?><!DOCTYPE svg PUBLIC "-//W3C//DTD SVG 1.1//EN" "http://www.w3.org/Graphics/SVG/1.1/DTD/svg11.dtd"><svg t="1730985272562" class="icon" viewBox="0 0 4355 1024" version="1.1" xmlns="http://www.w3.org/2000/svg" p-id="23147" xmlns:xlink="http://www.w3.org/1999/xlink" width="637.939453125" height="150"><path d="M806.237975 826.977215c1.296203 1.296203 2.592405 2.592405 3.888607 2.592405 32.405063 31.108861 54.440506 69.994937 63.513924 114.065823 0 5.18481 1.296203 9.073418 2.592405 14.258228 2.592405 11.665823 9.073418 22.035443 18.146836 31.108861 27.220253 27.220253 71.291139 27.220253 98.511392 0 27.220253-27.220253 27.220253-71.291139 0-98.511393-11.665823-11.665823-25.924051-18.146835-41.478481-19.443038-45.367089-9.073418-88.141772-32.405063-119.250633-66.106329-6.481013-6.481013-16.850633-6.481013-23.331645 0s-7.777215 15.55443-2.592405 22.035443" fill="#FB6500" p-id="23148"></path><path d="M1026.592405 880.121519c1.296203-1.296203 2.592405-2.592405 2.592405-3.888608 31.108861-32.405063 69.994937-54.440506 114.065823-63.513924 5.18481 0 9.073418-1.296203 14.258228-2.592405 11.665823-2.592405 22.035443-9.073418 31.108861-18.146835 27.220253-27.220253 27.220253-71.291139 0-98.511393-27.220253-27.220253-71.291139-27.220253-98.511393 0-11.665823 11.665823-18.146835 25.924051-19.443038 41.478481-9.073418 45.367089-32.405063 88.141772-66.106329 119.250633-6.481013 6.481013-6.481013 16.850633 0 23.331646s15.55443 9.073418 22.035443 2.592405" fill="#0082EF" p-id="23149"></path><path d="M1081.032911 659.767089c-1.296203-1.296203-2.592405-2.592405-3.888607-2.592405-32.405063-31.108861-54.440506-69.994937-63.513924-114.065823 0-5.18481-1.296203-9.073418-2.592405-14.258228-2.592405-11.665823-9.073418-22.035443-18.146836-31.108861-27.220253-27.220253-71.291139-27.220253-98.511392 0-27.220253 27.220253-27.220253 71.291139 0 98.511393 11.665823 11.665823 25.924051 18.146835 41.478481 19.443038 45.367089 9.073418 88.141772 32.405063 119.250633 66.106329 6.481013 6.481013 16.850633 6.481013 23.331645 0s7.777215-14.258228 2.592405-22.035443" fill="#2DBC00" p-id="23150"></path><path d="M860.678481 606.622785c-1.296203 1.296203-2.592405 2.592405-2.592405 3.888607-31.108861 32.405063-69.994937 54.440506-114.065823 63.513924-5.18481 0-9.073418 1.296203-14.258228 2.592406-11.665823 2.592405-22.035443 9.073418-31.10886 18.146835-27.220253 27.220253-27.220253 71.291139 0 98.511392 27.220253 27.220253 71.291139 27.220253 98.511392 0 11.665823-11.665823 18.146835-25.924051 19.443038-41.478481 9.073418-45.367089 32.405063-88.141772 66.106329-119.250633 6.481013-6.481013 6.481013-16.850633 0-23.331645-5.18481-6.481013-15.55443-7.777215-22.035443-2.592405" fill="#FFCC00" p-id="23151"></path><path d="M964.374684 267.017722c-19.443038-40.182278-45.367089-76.475949-77.772152-110.177216C806.237975 73.883544 692.172152 19.443038 567.736709 5.18481 545.701266 2.592405 523.665823 1.296203 501.63038 1.296203c-20.739241 0-41.478481 1.296203-63.513924 3.888607-124.435443 12.962025-237.205063 67.402532-318.865823 150.359494-32.405063 32.405063-58.329114 69.994937-77.772152 110.177215-25.924051 54.440506-40.182278 111.473418-40.182278 169.802532 0 76.475949 23.331646 150.359494 66.106329 216.465822 24.627848 37.589873 67.402532 85.549367 103.696202 114.065823l-19.443038 82.956962-5.18481 23.331646c-1.296203 2.592405-1.296203 5.18481-2.592405 7.777215v9.073418c0 20.739241 16.850633 38.886076 38.886076 38.886076 6.481013 0 12.962025-2.592405 19.443038-5.18481 1.296203 0 1.296203-1.296203 2.592405-1.296203l142.582278-71.291139c31.108861 9.073418 60.921519 14.258228 93.326583 18.146835 20.739241 2.592405 42.774684 3.888608 63.513924 3.888608 20.739241 0 44.070886-1.296203 66.106329-3.888608 42.774684-5.18481 85.549367-14.258228 125.731645-29.812658-3.888608-1.296203-9.073418-3.888608-12.962025-5.18481-24.627848-14.258228-37.589873-40.182278-34.997468-67.402532-28.516456 9.073418-59.625316 15.55443-89.437975 19.443038-18.146835 2.592405-36.293671 2.592405-55.736709 2.592405-18.146835 0-34.997468-1.296203-53.144304-2.592405-3.888608 0-7.777215-1.296203-10.36962-1.296202-24.627848-2.592405-47.959494-7.777215-71.291139-14.258228-5.18481-1.296203-10.36962-2.592405-14.258228-2.592405-7.777215 0-15.55443 2.592405-23.331645 6.481012-1.296203 0-2.592405 1.296203-2.592405 1.296203L235.908861 829.56962c-1.296203 1.296203-2.592405 1.296203-3.888608 1.296203-2.592405 0-6.481013-2.592405-6.481012-6.481013l3.888607-14.258228 3.888608-14.258228 12.962025-51.848101c1.296203-2.592405 1.296203-6.481013 1.296203-11.665823 0-11.665823-5.18481-23.331646-15.554431-29.812658-12.962025-9.073418-24.627848-19.443038-36.293671-31.108861-19.443038-19.443038-37.589873-38.886076-51.848101-62.217721C108.881013 554.774684 90.734177 496.44557 90.734177 436.820253c0-46.663291 10.36962-90.734177 31.108861-133.508861 15.55443-31.108861 36.293671-60.921519 62.217721-88.141772 67.402532-68.698734 160.729114-112.76962 264.425317-124.435443 18.146835-1.296203 34.997468-2.592405 53.144304-2.592405 18.146835 0 36.293671 1.296203 55.736709 2.592405 103.696203 11.665823 197.022785 55.736709 263.129114 124.435443 25.924051 27.220253 46.663291 55.736709 62.217721 88.141772 20.739241 42.774684 31.108861 86.84557 31.108861 132.212659v14.258227c27.220253-16.850633 62.217722-12.962025 85.549367 10.369621 1.296203 1.296203 2.592405 2.592405 2.592405 3.888607 1.296203-10.36962 1.296203-19.443038 1.296202-29.812658 0-57.032911-12.962025-114.065823-38.886075-167.210126M1773.205063 546.997468h203.503798v-71.291139h-203.503798V309.792405h-73.883544v400.526582h-121.843038V416.081013h-72.587342v294.237974h-112.76962v71.29114h637.731646v-71.29114h-256.648102z" fill="#0079DE" p-id="23152"></path><path d="M1742.096203 116.658228c93.326582 102.4 200.911392 184.060759 321.458227 242.389873l9.073418 5.18481-38.886076 68.698735-7.777215-3.888608c-119.250633-60.921519-222.946835-142.582278-311.088608-242.389873-80.364557 93.326582-185.356962 174.987342-313.681012 242.389873l-9.073418 3.888608-37.589873-68.698735 9.073417-5.18481c128.324051-63.513924 237.205063-146.470886 324.050633-243.686076l2.592405-3.888607h47.959494l3.888608 5.18481z m856.789873 1.296202h-73.883544v589.772152h-85.549367V117.95443h-73.883545v589.772152h-221.650633v71.29114h676.617722v-71.29114h-222.946836V117.95443z" fill="#0079DE" p-id="23153"></path><path d="M2264.465823 622.177215l2.592405 10.36962 68.698734-18.146835-2.592405-9.073418c-29.812658-128.324051-64.810127-244.982278-103.696203-346.086076l-3.888607-9.073417-63.513924 20.73924 3.888607 9.073418c37.589873 108.881013 71.291139 224.243038 98.511393 342.197468m423.858228-2.592405c45.367089-95.918987 82.956962-211.281013 112.76962-340.901266l2.592405-9.073417-66.106329-18.146836-2.592405 10.36962c-31.108861 133.508861-68.698734 246.278481-111.473418 333.124051l-5.18481 10.36962 67.402532 23.331646 2.592405-9.073418zM3488.081013 298.126582c-2.592405 79.068354-11.665823 149.063291-27.220254 211.281013-15.55443-49.255696-27.220253-106.288608-37.589873-168.506329 2.592405-10.36962 5.18481-20.739241 7.777215-33.701266l2.592405-9.073418h54.440507z m10.36962 311.088608c32.405063-85.549367 51.848101-190.541772 55.736709-311.088608h29.812658v-69.994936h-137.397468c6.481013-37.589873 11.665823-69.994937 15.55443-101.103798l1.296203-9.073418-67.402532-11.665822V116.658228c-12.962025 117.95443-33.701266 219.058228-64.810127 299.422785v-24.627848h-251.463291v67.402531h233.316456c-1.296203 3.888608-3.888608 7.777215-5.18481 11.665823l-2.592405 5.18481 42.774683 53.144304 6.481013-12.962025c11.665823-20.739241 22.035443-42.774684 31.108861-66.10633 12.962025 55.736709 27.220253 107.58481 44.070886 151.655697-25.924051 58.329114-60.921519 107.58481-104.992405 145.174683l-6.481013 5.18481 38.886076 60.921519 9.073418-7.777215c38.886076-34.997468 71.291139-76.475949 98.511392-123.13924 23.331646 49.255696 51.848101 89.437975 84.253165 120.546835l9.073417 7.777215 41.478481-62.217721-6.481012-5.18481c-36.293671-31.108861-68.698734-76.475949-94.622785-133.508861zM2916.455696 362.936709c71.291139-62.217722 124.435443-134.805063 156.840507-215.16962l3.888607-9.073418-63.513924-29.812658-3.888608 10.36962c-24.627848 66.106329-66.106329 125.731646-121.843037 177.579747l-3.888608 3.888607 22.035443 72.587342 10.36962-10.36962z" fill="#0079DE" p-id="23154"></path><path d="M3339.017722 151.655696h-63.513925v128.324051h-32.405063v-168.506329h-64.810126v168.506329h-32.405064v-128.324051h-63.513924v194.43038h256.648102v-194.43038z m-259.240507 186.653165l-62.217721-29.812658-3.888608 10.36962c-25.924051 71.291139-66.106329 133.508861-123.13924 189.245569l-3.888608 3.888608 22.035443 71.291139 11.665823-10.36962c18.146835-16.850633 34.997468-33.701266 50.551899-50.551899v289.053165h68.698734V426.450633c14.258228-24.627848 25.924051-50.551899 37.589873-80.364557l2.592405-7.777215z" fill="#0079DE" p-id="23155"></path><path d="M3375.311392 664.951899l3.888608-3.888608-16.850633-67.402532-12.962025 11.665823c-15.55443 15.55443-31.108861 31.108861-47.959494 45.367089V497.741772h-195.726582v90.734177c-1.296203 72.587342-19.443038 128.324051-57.032912 167.210127l-7.777215 7.777215 54.440507 46.663291 6.481012-6.481012c46.663291-47.959494 71.291139-120.546835 73.883545-215.169621v-23.331645h59.625316v149.063291l40.182278 38.886076 3.888608-2.592405c33.701266-24.627848 64.810127-53.144304 95.918987-85.549367m493.853165-532.739241l-67.402532-31.108861-2.592405 10.369621c-33.701266 115.362025-85.549367 217.762025-156.840506 304.607595l-3.888608 3.888607 23.331646 79.068355 11.665823-12.962026c19.443038-20.739241 37.589873-44.070886 55.736709-69.994936v391.453164h72.587341V300.718987c25.924051-50.551899 46.663291-102.4 64.810127-160.729114l2.592405-7.777215z" fill="#0079DE" p-id="23156"></path><path d="M4142.663291 208.688608l-1.296202-3.888608c-9.073418-28.516456-22.035443-58.329114-36.293671-90.734177l-3.888608-7.777215-71.291139 19.443038 5.18481 10.36962c11.665823 23.331646 23.331646 46.663291 32.405063 71.291139h-224.243038v69.994937h502.926583V207.392405h-203.503798zM3898.977215 390.156962h397.934177v-67.402532h-397.934177zM3898.977215 497.741772h397.934177v-68.698734h-397.934177zM4296.911392 541.812658v264.425317h-397.934177V541.812658h397.934177z m-71.291139 68.698734h-255.351899v124.435443H4225.620253v-124.435443z" fill="#0079DE" p-id="23157"></path></svg>