<?xml version="1.0" standalone="no"?><!DOCTYPE svg PUBLIC "-//W3C//DTD SVG 1.1//EN" "http://www.w3.org/Graphics/SVG/1.1/DTD/svg11.dtd"><svg t="1730985621582" class="icon" viewBox="0 0 3072 1024" version="1.1" xmlns="http://www.w3.org/2000/svg" p-id="8635" xmlns:xlink="http://www.w3.org/1999/xlink" width="450" height="150"><path d="M622.506667 416.085333l-14.890667-0.512c-64.213333-1.834667-117.802667 21.418667-158.890667 70.656-35.584 42.666667-48.768 93.013333-41.429333 147.712 8.362667 62.464 41.984 110.762667 95.274667 141.909334 67.84 39.68 137.386667 35.413333 202.666666-8.106667 54.869333-36.650667 83.626667-89.813333 85.248-155.818667 1.578667-63.445333 0.597333-126.933333 0.682667-190.421333v-22.272c3.584 1.877333 5.162667 2.56 6.613333 3.498667a253.184 253.184 0 0 0 125.824 40.661333l9.258667 0.554667V339.2c-8.106667-0.64-31.786667-5.248-31.786667-5.248-31.829333-5.802667-54.613333-25.728-75.349333-48.725333-21.333333-23.68-30.890667-52.821333-37.205333-83.029334l-1.365334-10.24H682.666667l2.517333 233.728c0 60.16 0.426667 120.32 0.384 180.522667-0.042667 39.296-25.856 75.136-61.994667 85.546667-31.658667 9.130667-59.136 2.688-84.565333-19.968-34.048-30.293333-37.504-91.221333-5.12-123.477334 21.76-21.76 47.658667-29.738667 77.738667-25.984l11.050666 1.834667-0.128-108.117333z" fill="#27E0DF" p-id="8636"></path><path d="M649.685333 445.781333l-14.933333-0.512c-64.213333-1.834667-117.802667 21.418667-158.890667 70.656-35.541333 42.666667-48.768 93.013333-41.386666 147.712 8.362667 62.464 41.941333 110.762667 95.274666 141.909334 67.84 39.68 137.386667 35.413333 202.624-8.106667 54.869333-36.650667 83.626667-89.813333 85.290667-155.818667 1.536-63.445333 0.554667-126.933333 0.682667-190.421333v-22.272c3.541333 1.877333 5.12 2.56 6.613333 3.541333a253.269333 253.269333 0 0 0 125.781333 40.618667l9.258667 0.554667V368.938667a481.962667 481.962667 0 0 1-31.786667-5.248c-31.829333-5.802667-54.613333-25.685333-75.349333-48.725334-21.333333-23.68-30.848-52.821333-37.162667-83.029333l-1.365333-10.24h-104.533333l2.474666 233.728c0 60.16 0.426667 120.32 0.384 180.522667 0 39.296-25.813333 75.136-61.994666 85.546666-31.658667 9.130667-59.093333 2.688-84.565334-19.968-34.005333-30.293333-37.461333-91.221333-5.12-123.477333 21.76-21.76 47.658667-29.738667 77.738667-25.984l11.093333 1.834667-0.128-108.117334z" fill="#F92C56" p-id="8637"></path><path d="M928.213333 363.690667c-31.829333-5.802667-54.613333-25.728-75.349333-48.725334a121.685333 121.685333 0 0 1-8.917333-11.264 260.778667 260.778667 0 0 1-18.218667-18.432c-16.725333-18.56-26.154667-40.448-32.512-63.573333h-83.413333l2.474666 233.728c0 60.16 0.426667 120.32 0.384 180.522667 0 39.338667-25.813333 75.136-61.952 85.546666-31.701333 9.130667-59.178667 2.688-84.608-19.968a77.525333 77.525333 0 0 1-16.64-21.418666 114.218667 114.218667 0 0 1-10.496-8.277334c-34.048-30.293333-37.504-91.221333-5.12-123.477333 21.76-21.76 47.658667-29.738667 77.738667-25.984l11.050667 1.834667-0.085334-78.933334c-58.837333 1.28-108.245333 24.576-146.645333 70.656-35.584 42.666667-48.810667 93.013333-41.472 147.712 4.522667 33.621333 16.426667 63.104 34.688 88.064 10.069333 8.917333 21.205333 16.981333 33.450667 24.149334 67.84 39.68 137.386667 35.413333 202.666666-8.106667 54.869333-36.650667 83.626667-89.813333 85.248-155.818667 1.578667-63.445333 0.597333-126.933333 0.682667-190.421333v-22.272c3.584 1.877333 5.162667 2.56 6.613333 3.498667a253.098667 253.098667 0 0 0 125.824 40.661333l9.258667 0.554667v-79.36l-4.650667-0.896M1109.333333 365.482667v73.557333h81.493334v264.96h82.432v-267.605333h64.682666l23.04-69.12zM1388.245333 702.208h81.536V472.746667h-81.493333zM1473.493333 406.101333a43.434667 43.434667 0 1 1-86.826666 0 43.434667 43.434667 0 0 1 86.826666 0M1662.08 540.970667l100.864-96.597334h-98.176l-78.890667 74.752V364.629333H1506.133333v337.578667h79.786667V616.106667l23.04-23.765334 74.410667 108.117334h89.472zM2074.581333 366.378667H1817.6v72.661333h85.077333v263.168h79.744V439.04h71.381334zM2532.48 540.970667l100.864-96.597334h-98.176l-78.890667 74.752V364.629333H2376.533333v337.578667h79.786667V616.106667l23.04-23.765334 74.410667 108.117334h89.472z" fill="#000000" p-id="8638"></path><path d="M2194.645333 629.632a65.578667 65.578667 0 0 1-66.048-65.152c0-35.968 29.568-65.109333 66.048-65.109333 36.48 0 66.048 29.141333 66.048 65.109333s-29.568 65.152-66.048 65.152m-12.373333-201.088c-81.237333 0-147.072 60.885333-147.072 135.936 0 75.093333 65.834667 135.978667 147.029333 135.978667 81.237333 0 147.072-60.885333 147.072-135.978667 0-75.093333-65.834667-135.936-147.072-135.936" fill="#27E0DF" p-id="8639"></path><path d="M2194.645333 629.632a65.578667 65.578667 0 0 1-66.048-65.152c0-35.968 29.568-65.109333 66.048-65.109333 36.48 0 66.048 29.141333 66.048 65.109333s-29.568 65.152-66.048 65.152m12.373334-201.088c-81.194667 0-147.029333 60.885333-147.029334 135.936 0 75.093333 65.834667 135.978667 147.072 135.978667 81.194667 0 147.029333-60.885333 147.029334-135.978667 0-75.093333-65.834667-135.936-147.029334-135.936" fill="#F92C56" p-id="8640"></path><path d="M2194.645333 629.632a65.578667 65.578667 0 0 1-66.048-65.152c0-35.968 29.568-65.109333 66.048-65.109333 36.48 0 66.048 29.141333 66.048 65.109333s-29.568 65.152-66.048 65.152m0-200.533333c-75.392 5.845333-134.656 64.170667-134.656 135.381333 0 71.253333 59.306667 129.536 134.656 135.381333 75.392-5.845333 134.656-64.170667 134.656-135.381333s-59.264-129.536-134.656-135.338667" fill="#000000" p-id="8641"></path></svg>