<?xml version="1.0" standalone="no"?><!DOCTYPE svg PUBLIC "-//W3C//DTD SVG 1.1//EN" "http://www.w3.org/Graphics/SVG/1.1/DTD/svg11.dtd"><svg t="1730985208493" class="icon" viewBox="0 0 1699 1024" version="1.1" xmlns="http://www.w3.org/2000/svg" p-id="14887" xmlns:xlink="http://www.w3.org/1999/xlink" width="248.876953125" height="150"><path d="M1301.58845265 691.02135849c-5.9094429 0-12.51411438-0.69522858-20.50924302-1.73807144-23.29015732-3.82375718-35.45665742-15.64264297-40.32325744-39.62802887h22.24731445c7.64751435 0 13.90457153 0 19.81401442 0.34761428h1.73807144c7.29990006 0 12.51411438-1.73807144 15.99025727-5.56182861 3.82375718-3.82375718 5.21421433-9.38558579 5.21421433-16.68548584-0.34761428-8.6903572-0.34761428-17.38071443-0.34761429-26.07107162 0-8.34274292 0-16.68548584-0.34761429-25.02822876-0.69522858-18.42355728-12.16650009-30.24244309-29.5472145-30.59005737-11.12365723-0.34761428-22.94254303-0.34761428-37.88995743-0.34761429H1177.837766v144.60754394h-51.09930039V546.76142883h-65.69910049V493.57644272h63.61341475V423.01074219h-42.40894317V371.21621322c4.17137146-0.34761428 8.34274292-0.34761428 12.86172867-0.69522857 7.29990006-0.34761428 15.29502869-0.69522858 23.6377716-1.04284287l6.60467149-0.34761429v-22.24731445h51.09930039c0 5.21421433 1.04284287 11.12365723 5.21421431 15.64264297 6.25705719 7.29990006 17.03310012 8.34274292 25.72345734 8.69035722 46.23270035 0.69522858 69.87047196 25.37584305 70.91331482 72.65138625 0.34761428 9.73320007 0 19.11878586 0 29.19960023v20.8568573l7.29990006-0.34761429h5.56182861c33.02335739 0 53.8802147 13.90457153 65.69910049 43.79940033v111.58418656c-14.25218582 31.28528595-29.19960022 42.06132889-55.27067183 42.06132888z m-123.75068666-264.18685913v15.99025726c0 12.51411438-0.34761428 23.29015732 0.69522858 34.06620026 0.69522858 7.29990006 10.42842865 15.99025727 18.07594299 15.99025726 3.1285286 0 28.50437165-0.34761428 29.5472145-11.47127151 1.39045716-13.90457153 2.7809143-32.32812881-2.43330001-48.66600037-2.43330002-7.29990006-11.12365723-8.6903572-23.6377716-10.42842864-4.51898574-0.69522858-9.38558579-1.39045716-13.55695725-2.43330003L1177.837766 418.14414215v8.69035721zM496.16614657 690.6737442c-3.82375718 0-7.99512863-0.34761428-12.16650008-1.04284286-21.20447158-3.47614289-32.67574311-16.33787155-35.10904313-39.62802888h43.10417175V346.88321304h51.44691468V421.62028503c0 70.91331482 0 144.25992966-0.34761428 216.56370163-0.34761428 33.02335739-17.72832871 52.48975754-46.92792894 52.48975753z m-106.7175865-37.54234314c-11.47127152-19.81401443-21.89970017-38.58518601-32.67574311-57.35635758v-5.90944289c1.39045716-6.60467148 2.43330002-13.55695725 3.82375717-20.16162873 3.1285286-15.64264297 6.25705719-31.98051453 8.34274292-48.31838607 2.43330002-20.50924301 3.82375718-40.32325745 5.21421432-61.52772905 0.34761428-6.95228576 1.04284287-13.90457153 1.39045715-21.20447158h54.57544328c-2.43330002 19.81401443-3.82375718 40.32325745-4.86660005 59.78965759-2.7809143 54.92305756-5.56182862 106.71758652-35.80427169 154.68835832z m397.32313155-51.44691468c-13.90457153 0-28.50437165-0.34761428-43.10417175-1.73807144-3.82375718-0.34761428-9.0379715-1.73807144-11.47127152-5.90944289-2.08568573-3.47614289-2.08568573-8.6903572 0.34761429-14.94741441 5.56182862-13.55695725 11.81888581-26.7663002 17.72832871-39.97564316 2.7809143-5.9094429 5.56182862-11.47127152 7.99512863-17.3807144l14.9474144-32.67574311h-31.28528595c-3.82375718 0-7.29990006 0-10.77604294-0.34761429-11.81888581-0.34761428-19.11878586-2.7809143-21.89970017-7.29990005-3.1285286-5.21421433-0.34761428-14.25218582 2.7809143-21.20447159 12.51411438-27.46152878 26.07107163-54.92305756 39.2804146-81.34174347 5.21421433-10.77604294 10.77604294-21.55208588 15.99025726-31.98051453h49.70884322c-2.7809143 5.21421433-5.56182862 10.77604294-8.34274291 15.99025727-12.16650009 23.63777161-23.98538589 45.88508606-32.32812882 68.13240051l-3.82375717 10.08081436 10.77604294-0.69522858c22.94254303-1.39045716 43.79940034-2.43330002 67.43717193-3.82375716-7.64751435 15.29502869-36.49950027 73.69422912-36.49950027 73.69422912-1.04284287 1.73807144-1.73807144 3.82375718-2.78091431 5.56182862s-1.73807144 3.47614289-2.7809143 5.56182861c-8.34274292 17.03310012-12.16650009 24.68061447-7.99512864 31.63290023s12.51411438 7.29990006 31.28528596 7.64751435h1.73807143l-3.12852859 6.25705718c-5.9094429 11.47127152-11.12365723 22.24731445-17.03310014 32.67574311-0.34761428 0.69522858-1.39045716 1.39045716-2.08568572 1.73807144h-13.90457153c-3.1285286 0.34761428-6.95228576 0.34761428-10.77604294 0.34761428z m534.28316116-179.02135848c-4.17137146 0-8.6903572-0.34761428-13.90457153-1.04284287-3.82375718-19.11878586-4.17137146-41.7137146 12.51411438-49.36122894 3.47614289-1.73807144 6.95228576-2.43330002 10.08081437-2.43330001 8.6903572 0 17.72832871 5.9094429 27.80914306 17.72832869v15.99025727c-7.99512863 13.20934297-19.46640015 19.11878586-36.49950028 19.11878586zM829.87586337 691.36897278c1.39045716-2.7809143 2.43330002-5.21421433 3.82375717-7.64751435 7.29990006-14.9474144 14.59980011-29.19960022 22.24731446-42.40894317 0.69522858-0.34761428 3.47614289-1.39045716 11.12365723-1.39045716 6.25705719-0.34761428 12.86172866-0.34761428 21.55208587-0.34761428h35.8042717V423.01074219h-41.7137146V372.60667038h137.65525818v49.36122894h-41.36610031v217.25893021h37.54234314c8.34274292 0 14.9474144 0 21.20447159-0.34761429h0.69522857c4.86660004 0 6.25705719 0 6.60467148 7.99512863v0.69522857c1.39045716 21.20447158 2.08568573 35.10904312-1.73807144 39.28041459s-17.72832871 4.17137146-39.97564316 4.17137147h-173.45952988v0.34761428z m-139.04571533-0.34761428c9.38558579-18.77117157 17.72832871-34.76142883 25.02822876-49.36122896l1.73807145-3.47614288h88.9892578c-1.04284287 1.73807144-1.73807144 3.47614289-2.7809143 5.21421432-8.34274292 16.33787155-15.29502869 30.24244309-22.94254303 44.14701463-0.69522858 1.04284287-3.82375718 3.1285286-5.21421432 3.12852858-17.72832871 0.34761428-35.10904312 0.34761428-49.70884324 0.34761431h-35.10904312z m-47.27554322-39.62802888c-25.02822876-30.59005737-39.28041458-107.06520081-39.62802886-213.08755874h51.09930039c0.69522858 10.08081436 1.04284287 20.16162873 1.39045716 30.24244308 1.04284287 27.11391449 2.43330002 55.27067184 8.34274291 82.38458633 9.38558579 39.28041458-4.51898574 71.2609291-21.2044716 100.46052933z" fill="#FF0000" p-id="14888"></path></svg>