<?xml version="1.0" standalone="no"?><!DOCTYPE svg PUBLIC "-//W3C//DTD SVG 1.1//EN" "http://www.w3.org/Graphics/SVG/1.1/DTD/svg11.dtd"><svg t="1730985190882" class="icon" viewBox="0 0 3108 1024" version="1.1" xmlns="http://www.w3.org/2000/svg" p-id="12433" xmlns:xlink="http://www.w3.org/1999/xlink" width="455.2734375" height="150"><path d="M256.475429 287.853714c-3.291429 2.304-10.349714 11.666286-14.006858 35.84-5.376 35.364571-3.766857 106.532571 34.450286 244.662857 1.133714 3.766857 12.8 41.764571 28.891429 81.92 23.734857 59.062857 39.350857 78.994286 45.494857 85.101715 8.923429-3.657143 29.622857-17.042286 58.88-52.662857 25.636571-31.158857 48.64-68.388571 63.341714-102.180572a2641.481143 2641.481143 0 0 0-86.601143-140.068571C299.52 309.540571 263.497143 290.523429 256.475429 287.890286z m511.049142 0c-7.021714 2.633143-43.044571 21.650286-130.450285 152.649143a2641.554286 2641.554286 0 0 0-86.601143 140.068572 454.217143 454.217143 0 0 0 63.305143 102.144c29.293714 35.620571 49.993143 49.005714 58.953143 52.662857 6.107429-6.144 21.796571-26.112 45.641142-85.577143 10.605714-26.770286 20.224-53.942857 28.708572-81.481143 38.180571-138.093714 39.826286-209.261714 34.450286-244.662857-3.657143-24.137143-10.715429-33.499429-14.006858-35.803429z" fill="#FA9D3B" p-id="12434"></path><path d="M887.478857 0H136.521143A136.521143 136.521143 0 0 0 0 136.521143v750.957714A136.521143 136.521143 0 0 0 136.521143 1024h750.957714A136.521143 136.521143 0 0 0 1024 887.478857V136.521143A136.521143 136.521143 0 0 0 887.478857 0z m-73.581714 587.227429l-0.182857 0.731428a1128.704 1128.704 0 0 1-35.986286 100.059429c-34.633143 82.651429-64.950857 117.906286-101.412571 117.906285-33.28 0-71.68-25.746286-114.029715-76.544A535.369143 535.369143 0 0 1 512 657.334857a536.027429 536.027429 0 0 1-50.285714 72.045714c-42.349714 50.797714-80.713143 76.544-114.029715 76.544-36.461714 0-66.779429-35.254857-101.412571-117.906285a1127.753143 1127.753143 0 0 1-35.986286-100.096l-0.182857-0.694857c-48.347429-174.555429-52.187429-285.257143-11.849143-338.285715 21.796571-28.635429 49.298286-30.866286 57.197715-30.866285 0.621714 0 1.206857 0 1.828571 0.073142 31.963429 0.402286 79.030857 22.674286 183.442286 177.883429A2535.131429 2535.131429 0 0 1 512 508.891429a2546.541714 2546.541714 0 0 1 71.277714-112.859429c104.374857-155.209143 151.442286-177.481143 183.478857-177.883429l1.792-0.073142c7.899429 0 35.401143 2.230857 57.161143 30.866285 40.374857 53.028571 36.498286 163.730286-11.812571 338.285715z" fill="#FA9D3B" p-id="12435"></path><path d="M1488.164571 242.724571h315.867429v366.811429h-75.483429V324.498286h-164.864v285.037714h-75.52V242.724571zM1243.428571 601.344c54.528-71.716571 95.634286-147.236571 123.318858-226.523429h-110.08V296.813714h69.193142V228.864h80.530286v67.949714h64.804572a917.284571 917.284571 0 0 1-45.933715 157.915429c-5.046857 13.019429-10.057143 24.539429-15.104 34.633143l62.281143 33.974857v85.577143l-63.524571-34.633143v224h-81.810286v-196.937143H1243.428571z m228.388572 196.937143c50.358857-52.004571 85.686857-102.875429 106.057143-152.576 20.297143-49.737143 30.464-106.422857 30.464-170.203429v-123.977143h72.996571v123.977143c0 61.659429-8.265143 118.710857-24.868571 171.154286-16.530286 52.406857-43.702857 102.948571-81.444572 151.625143h-103.204571z m194.413714-166.765714h71.753143v90.002285h89.965714v76.763429H1666.194286v-166.765714z m212.662857 92.525714c36.937143-4.608 68.059429-13.129143 93.44-25.490286a182.052571 182.052571 0 0 0 62.610286-48.749714h-54.125714v-174.299429h75.52v139.702857c14.665143-29.805714 23.917714-67.547429 27.684571-113.261714h75.483429c-5.449143 62.902857-18.432 115.126857-38.985143 156.672a235.008 235.008 0 0 1-89.344 98.121143c-39.021714 23.917714-89.782857 39.862857-152.283429 47.835429v-80.530286z m19.529143-221.476572h67.949714l-21.394285 145.334858h-67.949715l21.394286-145.334858z m-19.529143-120.795428h20.114286V255.926857h71.131429v125.805714h27.684571V219.428571h76.141714v45.933715h68.571429V340.845714H2073.965714v40.923429h78.628572v78.006857h-273.700572v-78.006857z m278.125715-143.469714h300.105142v76.8h-113.883428l-8.192 39.606857h108.251428v288.182857h-74.24v-217.709714h-128.365714v217.673142h-74.24v-288.182857h91.209143l8.192-39.606857h-108.836571V238.299429z m1.865142 489.508571c37.339429-6.692571 65.243429-21.065143 83.675429-43.081143 18.468571-22.052571 27.684571-49.408 27.684571-82.139428V460.434286h68.608v146.614857c0 5.010286-0.438857 12.982857-1.28 23.917714 61.257143 31.853714 103.424 87.844571 126.464 167.972572H2382.262857c-8.813714-41.508571-30.208-74.24-64.182857-98.157715a179.2 179.2 0 0 1-60.416 67.035429c-26.404571 17.810286-59.355429 30.061714-98.742857 36.790857v-76.763429zM3021.531429 235.776v198.838857H2573.531429V235.776h448z m-513.389715 232.192h578.852572v76.763429H2705.042286l-9.435429 39.606857h316.452572l-12.580572 213.942857h-199.460571v-80.530286h117.028571l3.803429-57.892571h-327.826286l26.441143-115.126857H2508.068571v-76.8z m430.994286-101.924571v-61.074286h-283.136v61.074286h283.136z" fill="#0B0C24" p-id="12436"></path></svg>